<?xml version="1.0" encoding="iso-8859-1"?>
<!-- Generator: Adobe Illustrator 22.1.0, SVG Export Plug-In . SVG Version: 6.00 Build 0)  -->
<svg version="1.1" id="&#x30EC;&#x30A4;&#x30E4;&#x30FC;_1"
	 xmlns="http://www.w3.org/2000/svg" xmlns:xlink="http://www.w3.org/1999/xlink" x="0px" y="0px" viewBox="0 0 368 85"
	 style="enable-background:new 0 0 368 85;" xml:space="preserve">
<polygon style="fill:#8246AF;" points="368,75 227,75 226.981,28.958 243.979,0 368,0 "/>
<g>
	<path style="fill:#FFFFFF;" d="M273.731,17.472c-1.538-0.979-4.893-2.447-9.367-2.447c-7.409,0-10.205,4.544-10.205,8.389
		c0,5.243,3.215,7.899,10.345,10.905c8.598,3.635,13.002,8.039,13.002,15.658c0,8.458-6.151,14.96-17.615,14.96
		c-4.823,0-10.065-1.469-12.722-3.355l1.607-4.824c2.866,1.888,7.13,3.286,11.464,3.286c7.13,0,11.324-3.845,11.324-9.577
		c0-5.242-2.866-8.458-9.786-11.255c-8.039-3.005-13.491-7.688-13.491-15.028c0-8.109,6.571-14.051,16.287-14.051
		c5.033,0,8.877,1.258,10.904,2.517L273.731,17.472z"/>
	<path style="fill:#FFFFFF;" d="M286.804,10.9h5.802v53.267h-5.802V10.9z"/>
	<path style="fill:#FFFFFF;" d="M354.817,64.167h-5.732l-1.328-23.977c-0.419-7.62-0.978-17.476-0.908-22.929h-0.21
		c-1.747,6.012-3.914,12.583-6.501,19.992l-9.506,26.704h-4.264l-8.878-26.145c-2.586-7.689-4.613-14.4-6.081-20.552h-0.21
		c-0.14,6.501-0.56,15.309-1.049,23.488l-1.468,23.417h-5.521l3.704-53.267h7.13l9.367,27.053
		c2.236,6.641,3.984,12.304,5.382,17.825h0.21c1.328-5.382,3.145-10.975,5.522-17.825l9.716-27.053h7.27L354.817,64.167z"/>
</g>
<g>
	<g>
		<rect x="81.339" y="20.737" style="fill:#8246AF;" width="4.602" height="4.43"/>
		<rect x="81.357" y="29.198" style="fill:#8246AF;" width="4.603" height="35.382"/>
	</g>
	<polygon style="fill:#8246AF;" points="98.149,54.084 92.616,63.668 91.771,65.103 108.422,65.104 108.422,60.501 99.758,60.501 
		114.103,35.653 114.103,79.585 91.582,79.585 91.582,84.187 118.672,84.188 118.672,84.152 118.706,84.152 118.706,27.682 
		118.706,18.478 114.103,26.449 	"/>
	<polygon style="fill:#8246AF;" points="151.376,26.449 145.617,36.425 133.417,57.556 133.418,9.907 128.815,9.907 128.815,65.101 
		133.417,65.101 133.417,65.093 134.38,65.093 137.031,60.501 151.376,35.653 151.376,65.21 155.978,65.21 155.978,27.682 
		155.978,18.478 	"/>
	<g>
		<polygon style="fill:#8246AF;" points="216.666,29.306 199.472,59.089 199.472,29.306 194.869,29.306 194.869,67.061 
			184.733,84.617 190.048,84.617 194.869,76.267 199.472,68.294 221.981,29.306 		"/>
	</g>
	<g>
		<polygon style="fill:#8246AF;" points="173.12,64.487 177.723,64.487 177.723,33.905 189.036,33.905 189.036,29.302 
			177.723,29.302 177.723,9.913 173.12,9.913 173.12,29.302 161.756,29.302 161.756,33.905 173.12,33.905 		"/>
	</g>
	<g>
		<polygon style="fill:#8246AF;" points="32.522,19.498 32.522,63.433 32.522,63.462 37.888,63.462 38.745,63.462 64.844,19.498 
			64.844,63.992 70.21,63.992 70.21,0.006 70.185,0.006 64.901,8.911 64.901,8.889 37.888,54.393 37.888,0.006 37.864,0.006 
			32.58,8.911 32.58,8.889 0.183,63.462 6.423,63.462 		"/>
		<polygon style="fill:#8246AF;" points="32.505,63.462 32.522,63.462 32.522,63.433 		"/>
	</g>
</g>
</svg>
